<?xml version="1.0" encoding="UTF-8" standalone="no"?>
<!-- Created with Inkscape (http://www.inkscape.org/) -->

<svg
   xmlns:dc="http://purl.org/dc/elements/1.1/"
   xmlns:cc="http://creativecommons.org/ns#"
   xmlns:rdf="http://www.w3.org/1999/02/22-rdf-syntax-ns#"
   xmlns:svg="http://www.w3.org/2000/svg"
   xmlns="http://www.w3.org/2000/svg"
   xmlns:sodipodi="http://sodipodi.sourceforge.net/DTD/sodipodi-0.dtd"
   xmlns:inkscape="http://www.inkscape.org/namespaces/inkscape"
   id="svg3336"
   version="1.1"
   inkscape:version="0.91 r13725"
   width="2560"
   height="1520"
   viewBox="0 0 2560 1520"
   sodipodi:docname="a_vm1455.svg">
  <metadata
     id="metadata3342">
    <rdf:RDF>
      <cc:Work
         rdf:about="">
        <dc:format>image/svg+xml</dc:format>
        <dc:type
           rdf:resource="http://purl.org/dc/dcmitype/StillImage" />
        <dc:title />
      </cc:Work>
    </rdf:RDF>
  </metadata>
  <defs
     id="defs3340" />
  <sodipodi:namedview
     pagecolor="#ffffff"
     bordercolor="#666666"
     borderopacity="1"
     objecttolerance="10"
     gridtolerance="10"
     guidetolerance="10"
     inkscape:pageopacity="0"
     inkscape:pageshadow="2"
     inkscape:window-width="1680"
     inkscape:window-height="935"
     id="namedview3338"
     showgrid="false"
     inkscape:snap-nodes="false"
     inkscape:zoom="0.49962676"
     inkscape:cx="1137.5308"
     inkscape:cy="937.35728"
     inkscape:window-x="0"
     inkscape:window-y="1"
     inkscape:window-maximized="1"
     inkscape:current-layer="svg3336" />
  <path
     style="fill:green;fill-rule:evenodd;stroke:#000000;stroke-width:1px;stroke-linecap:butt;stroke-linejoin:miter;stroke-opacity:1"
     d="m 818.61107,691.38146 c 4.00299,-104.07769 -4.00299,-68.0508 4.00299,-104.07769 8.00597,-36.02689 6.00448,-32.0239 20.01494,-74.05528 14.01046,-42.03137 32.0239,-88.06574 52.03884,-120.08964 20.01494,-32.02391 42.03138,-50.03735 72.05379,-70.0523 30.02241,-20.01494 52.03887,-20.01494 80.05977,-20.01494 28.0209,0 52.0388,2.0015 74.0553,14.01046 22.0164,12.00897 58.0434,44.03283 74.0553,66.04931 16.0119,22.01643 22.0164,56.04183 26.0194,90.06723 4.003,34.02539 26.1329,36.49028 40.0299,94.07022 26.2277,108.66985 -82.0613,84.06275 -112.0837,110.08218 -30.0224,26.01942 -36.7106,51.56165 -122.0911,32.0239 0,0 10.1121,11.41158 38.0284,30.02241 18.0134,12.00896 54.0403,24.01793 56.0418,48.03586 2.0015,24.01792 6.0045,40.02988 16.0119,72.05378 10.0075,32.02391 30.0224,66.04931 44.0329,84.06275 14.0105,18.01345 96.0717,44.03287 60.0448,44.03287 -36.0269,0 -118.0881,-2.00149 -146.1091,-4.00299 C 1066.7963,981.5981 994.74255,993.60706 950.70968,959.58166 910.33177,928.38054 870.06588,858.3389 844.63049,819.47708 817.67016,778.28536 818.61107,691.38146 818.61107,691.38146 Z"
    id="poumon-D"
     inkscape:connector-curvature="0"
     sodipodi:nodetypes="csssssssssssssssssssc" />
  <path
     style="fill:none;fill-rule:evenodd;stroke:#000000;stroke-width:1px;stroke-linecap:butt;stroke-linejoin:miter;stroke-opacity:1"
     d="m 1371.0234,597.31124 c 0,-46.03436 -6.0045,-74.05528 -12.0089,-104.07769 -6.0045,-30.02241 -10.0075,-56.04183 2.0015,-78.05827 12.0089,-22.01643 60.0448,-76.05677 80.0597,-84.06275 20.015,-8.00598 30.0224,-38.02839 92.0687,-16.01195 62.0464,22.01643 97.8624,39.44188 138.1031,100.0747 55.1393,83.08132 47.2408,73.43609 56.0419,92.06873 33.3802,70.66813 38.7722,122.99416 42.0313,158.11803 1.8585,20.02872 -10.4441,87.64729 -12.0089,104.07769 -4.003,42.03137 -18.1677,68.973 -16.012,84.06275 2.0016,14.01045 -42.0313,72.05378 -44.0328,72.05378 -2.0015,0 -48.677,57.67199 -80.0598,64.04782 -18.7157,3.80234 -98.6502,40.72282 -136.1016,28.02092 -14.4353,-4.8958 -40.0299,-20.01495 -40.0299,-20.01495 l 92.0687,-14.01046 c 0,0 34.0255,-12.00896 52.0389,-34.0254 17.7891,-21.74224 36.0269,-76.05677 36.0269,-76.05677 l -28.0209,-72.05379 -56.0419,-98.0732 -78.0582,-62.04632 -62.0463,-22.01643 z"
     id="poumon-G"
     inkscape:connector-curvature="0"
     sodipodi:nodetypes="cssssssssssssccscccccc" />
  <path
     style="fill:none;fill-rule:evenodd;stroke:#000000;stroke-width:1px;stroke-linecap:butt;stroke-linejoin:miter;stroke-opacity:1"
     d="m 2069.5449,485.22757 c 0,0 -4.003,28.02092 6.0044,64.04781 10.0075,36.0269 62.0464,4.00299 66.0493,-2.00149 4.003,-6.00448 24.018,-56.04183 8.006,-68.0508 -16.0119,-12.00896 -78.0583,-18.01345 -80.0597,6.00448 z"
     id="humerus-G"
     inkscape:connector-curvature="0" />
  <path
     style="fill:none;fill-rule:evenodd;stroke:#000000;stroke-width:1px;stroke-linecap:butt;stroke-linejoin:miter;stroke-opacity:1"
     d="m 398.29732,519.25297 c 0.40697,0 -16.11866,70.48898 2.00149,90.06723 31.0406,33.53839 69.27055,6.76561 68.0508,-16.01195 -1.89768,-35.43706 6.70094,-78.05827 -6.00448,-80.05976 -10.08133,-1.58812 -28.02092,-16.01195 -64.04781,6.00448 z"
     id="humerus-D"
     inkscape:connector-curvature="0"
     sodipodi:nodetypes="csssc" />
  <path
     style="fill:none;fill-rule:evenodd;stroke:#000000;stroke-width:1px;stroke-linecap:butt;stroke-linejoin:miter;stroke-opacity:1"
     d="m 1182.883,695.38445 c 0,0 -42.0314,50.03735 -42.0314,96.07171 0,46.03437 1.3891,71.9167 40.0299,76.05678 56.0418,6.00448 76.0568,-2.0015 86.0642,26.01942 10.5368,29.50325 22.0165,80.05976 78.0583,70.05229 56.0418,-10.00747 108.0807,-10.00747 112.0837,-26.01942 4.003,-16.01195 -28.0209,-30.02241 -48.0359,-56.04183 -16.4179,-21.34321 -60.7221,-82.09595 -80.0597,-102.0762 -25.0215,-25.8531 -31.963,-72.20713 -6.0045,-98.07321 7.3489,-7.32276 9.4604,-48.03586 2.0015,-42.03137 -13.3209,10.72344 -22.0165,58.04332 -28.021,64.04781 -6.0044,6.00448 -34.0254,-10.00747 -26.0194,-12.00897 8.006,-2.00149 14.0105,-20.01494 6.0045,-22.01643 -8.006,-2.0015 -46.0344,-12.00897 -56.0418,-4.00299 -10.0075,8.00597 -42.0314,22.01643 -38.0284,30.02241 z"
     id="ventricule-D"
     inkscape:connector-curvature="0"
     sodipodi:nodetypes="csssssssssssssc" />
  <path
     style="fill:none;fill-rule:evenodd;stroke:#000000;stroke-width:1px;stroke-linecap:butt;stroke-linejoin:miter;stroke-opacity:1"
     d="m 1457.0877,649.35009 c 6.2006,0 83.3535,66.55097 98.0732,88.06573 20.3719,29.77618 40.0661,105.37147 32.0239,142.10608 -2.3799,10.87094 -11.3448,71.30628 -50.0374,78.05827 -35.5852,6.20974 -39.6456,19.63072 -76.0567,-20.01494 -36.8289,-40.10057 -100.0747,-114.08516 -102.0762,-130.09711 -2.0015,-16.01196 -56.3833,-38.15082 -44.0329,-72.05379 12.009,-32.96581 20.0149,-68.13466 52.0388,-86.06424 30.4996,-17.07617 96.0718,-16.01196 90.0673,0 z"
     id="ventricule-G"
     inkscape:connector-curvature="0"
     sodipodi:nodetypes="csssssssc" />
  <path
     style="fill:none;fill-rule:evenodd;stroke:#000000;stroke-width:1px;stroke-linecap:butt;stroke-linejoin:miter;stroke-opacity:1"
     d="m 376.28088,561.28435 c 0,0 -42.03137,64.04781 -34.0254,68.0508 8.00598,4.00298 38.02839,18.01344 66.04931,18.01344 28.02091,0 -9.86668,31.56079 -10.00747,62.04632 -0.14879,32.21865 34.12047,72.5871 78.05826,80.05976 58.40372,9.93294 120.75177,-42.0753 122.09114,-108.08068 1.29966,-64.04781 -25.01593,-146.38585 -34.0254,-136.10159 -15.56168,17.76358 -77.68247,-23.89541 -86.06424,-18.01346 -14.0935,9.89019 -10.00821,99.93054 -24.01793,100.07471 -14.01046,0.14418 -66.0493,3.59875 -66.0493,-40.02988 0,-8.00598 -12.00897,-26.01942 -12.00897,-26.01942 z"
     id="biceps-D"
     inkscape:connector-curvature="0"
     sodipodi:nodetypes="csssssssssc"
     biceps-D="" />
  <path
     style="fill:none;fill-rule:evenodd;stroke:#000000;stroke-width:1px;stroke-linecap:butt;stroke-linejoin:miter;stroke-opacity:1"
     d="m 308.23008,361.13494 c 0,0 -72.05378,70.05229 -68.05079,98.07321 4.00298,28.02092 -6.00449,92.06873 22.01643,128.09562 28.02092,36.02689 58.04333,46.03436 70.05229,44.03287 12.00897,-2.00149 56.04184,-90.06723 50.03735,-106.07919 -6.00448,-16.01195 42.03138,-24.01792 72.05379,-20.01494 30.02241,4.00299 98.07321,8.00598 98.07321,-12.00896 0,-20.01494 -16.01195,-130.09711 -52.03885,-152.11355 -36.02689,-22.01643 -94.07022,-40.02988 -132.0986,-18.01345 -38.02839,22.01644 -60.04483,38.02839 -60.04483,38.02839 z"
     id="path3418"
     inkscape:connector-curvature="0" />
  <path
     style="fill:none;fill-rule:evenodd;stroke:#000000;stroke-width:1px;stroke-linecap:butt;stroke-linejoin:miter;stroke-opacity:1"
     d="m 1973.4731,507.24401 c 0,0 -36.0269,86.06424 -24.0179,126.09412 12.009,40.02988 6.0045,100.07471 46.0344,116.08666 40.0299,16.01195 126.635,-17.31566 144.1075,-40.02988 20.015,-26.01943 3.3877,-38.06415 44.033,-60.04482 26.9729,-14.58679 26.0193,-8.00598 36.0268,-46.03437 3.6698,-13.94528 -12.8812,-29.36949 -22.8346,-43.45468 -18.0204,-25.50079 -37.2102,-46.61255 -37.2102,-46.61255 0,0 -19.1255,48.98633 -24.0179,40.02988 -1.8701,-3.42346 -50.1698,32.77931 -64.0479,0 -15.0101,-35.45291 8.006,-60.04482 -2.0014,-66.0493 -10.0075,-6.00448 -38.0284,-10.00747 -46.0344,-4.00299 -8.006,6.00448 -50.0374,24.01793 -50.0374,24.01793 z"
     id="biceps-G"
     inkscape:connector-curvature="0"
     sodipodi:nodetypes="csssssscssssc" />
  <path
     style="fill:none;fill-rule:evenodd;stroke:#000000;stroke-width:1px;stroke-linecap:butt;stroke-linejoin:miter;stroke-opacity:1"
     d="m 2035.5195,295.08564 c 0,0 -56.0419,54.04034 -62.0464,82.06125 -6.0044,28.02092 0,104.0777 0,104.0777 l 0,0 70.0523,-2.0015 56.0419,-12.00896 c 0,0 68.0508,2.00149 64.0478,12.00896 -4.003,10.00747 24.0179,78.05826 48.0358,88.06574 24.0179,10.00747 34.0254,12.00897 58.0434,-10.00747 24.0179,-22.01643 48.0358,-108.08068 34.0253,-134.10011 -14.0104,-26.01942 -26.0194,-66.0493 -58.0433,-84.06274 -32.0239,-18.01345 -120.0896,-64.04781 -142.106,-64.04781 -22.0165,0 -68.0508,20.01494 -68.0508,20.01494 z"
     id="triceps-D"
     inkscape:connector-curvature="0"
     sodipodi:nodetypes="csccccssssssc" />
  <path
     style="fill:none;fill-rule:evenodd;stroke:#000000;stroke-width:1px;stroke-linecap:butt;stroke-linejoin:miter;stroke-opacity:1"
     d="m 1268.9472,351.12747 -6.0045,10.00747 0,8.00598 6.0045,6.00448 12.009,2.00149 8.006,-2.00149 6.0045,-4.00299 2.0014,-8.00597 -4.0029,-6.00449 -6.0045,-4.00298 -4.003,-2.0015 z"
     id="moelle-epiniere"
     inkscape:connector-curvature="0" />
  <path
     style="fill:none;fill-rule:evenodd;stroke:#000000;stroke-width:1px;stroke-linecap:butt;stroke-linejoin:miter;stroke-opacity:1"
     d="m 1276.9532,569.29031 c 0,0 32.0239,-16.01195 44.0329,-8.00597 12.009,8.00597 38.0284,32.0239 30.0224,40.02988 -8.006,8.00598 -24.0179,34.0254 -44.0329,32.0239 -20.0149,-2.00149 -44.0328,-12.00896 -44.0328,-18.01344 0,-6.00448 6.0044,-48.03586 14.0104,-46.03437 z"
     id="oesophage"
     inkscape:connector-curvature="0"
     sodipodi:nodetypes="cssssc" />
  <path
     style="fill:none;fill-rule:evenodd;stroke:#000000;stroke-width:1px;stroke-linecap:butt;stroke-linejoin:miter;stroke-opacity:1"
     d="m 860.64245,367.13941 c 0,0 -68.0508,108.08068 -80.05976,180.13447 -12.00897,72.05379 -24.03881,185.68263 34.0254,284.21216 58.6294,99.48862 116.27618,173.94046 244.18231,188.14046 126.3305,14.0251 368.2749,64.0478 480.3585,28.0209 112.0837,-36.0269 240.1793,-124.09263 262.1958,-250.18676 17.1197,-98.04947 -2.0015,-226.16883 -32.0239,-300.22411 -30.0224,-74.05528 -118.0881,-184.13746 -142.1061,-194.14493 -24.0179,-10.00747 -242.1808,-42.03137 -266.1987,-18.01344 -24.018,24.01792 -86.0643,22.01643 -86.0643,22.01643 l 2.0015,24.01793 44.0329,12.00896 4.003,18.01345 20.0149,6.00448 56.0419,-8.00597 c 0,0 60.0448,-54.04034 88.0657,-52.03885 28.0209,2.00149 122.0911,20.01494 154.115,60.04482 32.0239,40.02988 102.0762,160.11953 108.0807,188.14045 6.0045,28.02091 36.0269,114.08516 6.0045,222.16584 -30.0224,108.08068 -70.0523,208.15538 -170.127,226.1688 -100.0747,18.0135 -348.26,-8.00595 -348.26,-8.00595 l -228.1703,-10.00747 c 0,0 -96.07171,-34.0254 -120.08964,-82.06126 -24.01793,-48.03585 -70.05229,-110.08217 -74.05528,-184.13745 -4.00299,-74.05528 8.00598,-192.14343 36.0269,-244.18228 28.02091,-52.03884 70.05229,-134.1001 110.08217,-152.11355 40.02985,-18.01344 104.07765,-34.0254 140.10455,-16.01195 36.0269,18.01345 94.0703,72.05379 94.0703,72.05379 l 26.0194,-10.00747 38.0284,-38.02839 -2.0016,-24.01793 -88.0657,-32.0239 -140.1046,-6.00449 c 0,0 -84.0627,10.00747 -104.07764,30.02241 -20.01494,20.01494 -66.04931,68.0508 -66.04931,68.0508 z"
     id="cage-thoracique"
     inkscape:connector-curvature="0"
     sodipodi:nodetypes="cssssssssccccccsssssccsssssccccccsc" />
  <path
     style="fill:none;fill-rule:evenodd;stroke:#000000;stroke-width:1px;stroke-linecap:butt;stroke-linejoin:miter;stroke-opacity:1"
     d="m 1268.9472,519.25296 -8.0059,12.00897 2.0015,10.00747 10.0074,6.00448 10.0075,2.00149 6.0045,-6.00448 2.0015,-10.00747 -2.0015,-12.00896 -6.0045,-2.0015 z"
     id="veine-cave-inferieure"
     inkscape:connector-curvature="0" />
  <path
     style="fill:none;fill-rule:evenodd;stroke:#000000;stroke-width:1px;stroke-linecap:butt;stroke-linejoin:miter;stroke-opacity:1"
     d="m 1310.9786,543.27089 16.012,12.00897 14.0104,10.00747 12.009,0 10.0075,-8.00598 2.0015,-12.00896 -8.006,-12.00897 -6.0045,-16.01195 -4.003,-12.00897 -8.006,-6.00448 -12.0089,0 -12.009,10.00747 -8.006,10.00747 0,14.01046 z"
     id="artere-aorte-descendante"
     inkscape:connector-curvature="0"
     sodipodi:nodetypes="ccccccccccccccc" />
  <path
     style="fill:none;fill-rule:evenodd;stroke:#000000;stroke-width:1px;stroke-linecap:butt;stroke-linejoin:miter;stroke-opacity:1"
     d="m 1605.1982,901.53833 c 0,0 24.018,-26.01942 8.006,-54.04034 -16.0119,-28.02092 -54.0403,-110.08217 -54.0403,-110.08217 0,0 -30.0224,-46.03437 -64.0478,-70.0523 -34.0254,-24.01792 -84.0628,-44.03287 -122.0912,-42.03137 -38.0284,2.00149 -154.115,34.0254 -154.115,34.0254 0,0 -52.0389,38.02839 -62.0463,64.04781 -10.0075,26.01942 -28.0209,70.05229 -22.0165,94.07022 6.0045,24.01793 12.009,78.05827 32.0239,98.07321 20.015,20.01494 30.0225,52.03885 82.0613,66.0493 52.0388,14.01046 178.133,12.00897 178.133,12.00897 l 104.0777,-12.00897 c 0,0 54.0403,-22.01643 64.0478,-44.03287 10.0074,-22.01643 10.0074,-36.02689 10.0074,-36.02689 z"
     id="coeur"
     inkscape:connector-curvature="0" />
  <path
     style="fill:none;fill-rule:evenodd;stroke:#000000;stroke-width:1px;stroke-linecap:butt;stroke-linejoin:miter;stroke-opacity:1"
     d="m 1226.9159,369.14091 -4.003,90.06723 c 0,0 12.0089,54.04034 40.0299,54.04034 28.0209,0 64.0478,-4.00299 72.0537,-40.02988 8.006,-36.02689 16.012,-88.06574 16.012,-88.06574 0,0 -6.0045,-14.01046 -14.0105,-18.01345 -8.0059,-4.00299 -40.0298,12.00897 -48.0358,24.01793 -8.006,12.00897 -46.0344,-30.02241 -46.0344,-30.02241 z"
     id="vertebre-thoracique"
     inkscape:connector-curvature="0" />
</svg>
